<?xml version="1.0" encoding="utf-8"?>
<svg xmlns="http://www.w3.org/2000/svg" viewBox="0 0 500 500">
  <path d="M 16.437 314.339 L 83.53 313.98 L 88.187 298.88 L 21.302 298.534 L 16.437 314.339 Z" fill="#F4A949" style="stroke-width: 1; transform-box: fill-box; transform-origin: 334.512% -591.927%;" transform="matrix(-1, 0, 0, -1, -0.000036, 0.000008)"/>
  <path d="M 103.466 313.918 L 170.563 313.549 L 175.214 298.458 L 108.324 298.113 L 103.466 313.918 Z" fill="#1C5F9A" style="stroke-width: 1; transform-box: fill-box; transform-origin: 213.236% -589.238%;" transform="matrix(-1, 0, 0, -1, 0.000012, 0.000006)"/>
  <path d="M 66.578 280.875 L 133.659 280.513 L 138.31 265.409 L 71.431 265.072 L 66.578 280.875 Z" fill="#1C5F9A" style="stroke-width: 1; transform-box: fill-box; transform-origin: 264.711% -380.244%;" transform="matrix(-1, 0, 0, -1, 0.000017, 0.000013)"/>
  <path d="M 190.634 313.006 L 454.986 312.589 L 459.64 297.49 L 195.501 297.212 L 190.634 313.006 Z" fill="#1C5F9A" style="stroke-width: 1; transform-box: fill-box; transform-origin: 24.4698% -583.956%;" transform="matrix(-1, 0, 0, -1, 0.000013, 0.000001)"/>
  <path d="M 172.12 280.757 L 482.565 277.571 L 485.88 262.481 L 175.59 264.952 L 172.12 280.757 Z" fill="#9C27B0" style="stroke-width: 1; transform-box: fill-box; transform-origin: 26.8792% -314.626%;" transform="matrix(-1, 0, 0, -1, 0.000013, -0.000009)"/>
  <path d="M 12.078 326.009 L 70.652 322.586 L 71.307 307.491 L 12.761 310.215 L 12.078 326.009 Z" fill="#1C5F9A" style="stroke-width: 1; transform-box: fill-box; transform-origin: 412.599% -553.558%;" transform="matrix(0.998455, 0.055574, -0.055574, 0.998455, 0, 0.000001)"/>
  <path d="M 147.213 280.607 L 164.062 280.124 L 168.718 265.027 L 152.074 264.803 L 147.213 280.607 Z" fill="#F4A949" style="stroke-width: 1; transform-box: fill-box; transform-origin: 507.985% -378.512%;" transform="matrix(-1, 0, 0, -1, 0.000004, -0.000028)"/>
  <path d="M 328.103 245.477 L 393.247 244.276 L 397.893 229.177 L 332.97 229.685 L 328.103 245.477 Z" fill="#F4A949" style="stroke-width: 1; transform-box: fill-box; transform-origin: -102.668% -148.417%;" transform="matrix(-1, 0, 0, -1, -0.000001, 0.000007)"/>
  <path d="M 268.97 147.569 L 285.821 147.09 L 290.476 131.987 L 273.837 131.772 L 268.97 147.569 Z" fill="#F4A949" style="stroke-width: 1; transform-box: fill-box; transform-origin: -58.1873% 463.461%;" transform="matrix(-1, 0, 0, -1, 0, 0.000003)"/>
  <path d="M 295.372 147.849 L 312.218 147.368 L 316.866 132.275 L 300.243 132.042 L 295.372 147.849 Z" fill="#F4A949" style="stroke-width: 1; transform-box: fill-box; transform-origin: -181.059% 461.429%;" transform="matrix(-1, 0, 0, -1, 0.000004, 0.000001)"/>
  <path d="M 76.914 247.32 L 191.338 246.069 L 195.989 230.965 L 81.783 231.517 L 76.914 247.32 Z" fill="#1C5F9A" style="stroke-width: 1; transform-box: fill-box; transform-origin: 150.779% -158.863%;" transform="matrix(-1, 0, 0, -1, -0.000015, -0.000026)"/>
  <path d="M 304.635 213.512 L 419.077 212.254 L 423.728 197.157 L 309.508 197.705 L 304.635 213.512 Z" fill="#1C5F9A" style="stroke-width: 1; transform-box: fill-box; transform-origin: -40.453% 47.8569%;" transform="matrix(-1, 0, 0, -1, 0.000028, 0.000011)"/>
  <path d="M 144.882 146.863 L 259.31 145.609 L 263.97 130.503 L 149.738 131.061 L 144.882 146.863 Z" fill="#1C5F9A" style="stroke-width: 1; transform-box: fill-box; transform-origin: 93.6948% 455.245%;" transform="matrix(-1, 0, 0, -1, -0.000007, -0.000003)"/>
  <path d="M 311.544 114.028 L 425.995 112.789 L 430.643 97.698 L 316.418 98.238 L 311.544 114.028 Z" fill="#1C5F9A" style="stroke-width: 1; transform-box: fill-box; transform-origin: -46.2537% 657%;" transform="matrix(-1, 0, 0, -1, 0.000023, -0.000016)"/>
  <path d="M 178.047 180.508 L 393.266 178.283 L 397.921 163.197 L 182.901 164.705 L 178.047 180.508 Z" fill="#1C5F9A" style="stroke-width: 1; transform-box: fill-box; transform-origin: 35.6619% 241.372%;" transform="matrix(-1, 0, 0, -1, -0.000032, 0.000024)"/>
  <path d="M 206.107 245.801 L 320.537 244.549 L 325.187 229.453 L 210.967 230.003 L 206.107 245.801 Z" fill="#1C5F9A" style="stroke-width: 1; transform-box: fill-box; transform-origin: 42.2835% -149.676%;" transform="matrix(-1, 0, 0, -1, 0.000017, 0.000006)"/>
  <path d="M 47.439 213.649 L 114.536 213.292 L 119.186 198.189 L 52.308 197.856 L 47.439 213.649 Z" fill="#F4A949" style="stroke-width: 1; transform-box: fill-box; transform-origin: 291.317% 45.1337%;" transform="matrix(-1, 0, 0, -1, -0.000038, 0)"/>
  <path d="M 125.732 213.898 L 286.751 213.412 L 291.401 198.312 L 130.584 198.087 L 125.732 213.898 Z" fill="#9C27B0" style="stroke-width: 1; transform-box: fill-box; transform-origin: 78.9081% 43.6152%;" transform="matrix(-1, 0, 0, -1, -0.00002, -0.000003)"/>
  <path d="M 402.899 178.66 L 485.146 179.09 L 486.37 163.98 L 404.184 162.855 L 402.899 178.66 Z" fill="#9C27B0" style="stroke-width: 1; transform-box: fill-box; transform-origin: -175.443% 259.476%;" transform="matrix(-1, 0, 0, -1, -0.000016, 0.000006)"/>
  <path d="M 101.153 180.055 L 168.256 179.703 L 172.911 164.597 L 106.03 164.251 L 101.153 180.055 Z" fill="#F4A949" style="stroke-width: 1; transform-box: fill-box; transform-origin: 216.422% 257.726%;" transform="matrix(-1, 0, 0, -1, 0.000001, 0.000007)"/>
  <path d="M 86.429 146.347 L 135.221 146.16 L 139.86 131.066 L 91.302 130.541 L 86.429 146.347 Z" fill="#9C27B0" style="stroke-width: 1; transform-box: fill-box; transform-origin: 318.226% 471.005%;" transform="matrix(-1, 0, 0, -1, 0.000032, -0.000005)"/>
  <path d="M 244.725 113.824 L 293.513 113.65 L 298.168 98.546 L 249.591 98.029 L 244.725 113.824 Z" fill="#9C27B0" style="stroke-width: 1; transform-box: fill-box; transform-origin: 21.9455% 677.131%;" transform="matrix(-1, 0, 0, -1, -0.000015, -0.000015)"/>
  <path d="M 78.447 112.971 L 223.511 113.89 L 228.163 98.779 L 83.314 97.171 L 78.447 112.971 Z" fill="#1C5F9A" style="stroke-width: 1; transform-box: fill-box; transform-origin: 118.897% 644.859%;" transform="matrix(-1, 0, 0, -1, 0.00001, -0.00001)"/>
</svg>